<?xml version="1.0" encoding="UTF-8"?>
<!DOCTYPE svg PUBLIC "-//W3C//DTD SVG 1.1//EN" "http://www.w3.org/Graphics/SVG/1.1/DTD/svg11.dtd">
<svg xmlns="http://www.w3.org/2000/svg" version="1.1" width="540px" height="242px" style="shape-rendering:geometricPrecision; text-rendering:geometricPrecision; image-rendering:optimizeQuality; fill-rule:evenodd; clip-rule:evenodd" xmlns:xlink="http://www.w3.org/1999/xlink">
<g><path style="opacity:1" fill="#f9f9f9" d="M -0.5,-0.5 C 179.5,-0.5 359.5,-0.5 539.5,-0.5C 539.5,80.1667 539.5,160.833 539.5,241.5C 359.5,241.5 179.5,241.5 -0.5,241.5C -0.5,160.833 -0.5,80.1667 -0.5,-0.5 Z"/></g>
<g><path style="opacity:1" fill="#e0f5f6" d="M 386.5,51.5 C 385.527,49.8608 384.194,48.5274 382.5,47.5C 374.335,40.6791 366.335,41.0125 358.5,48.5C 358.5,47.1667 358.5,45.8333 358.5,44.5C 361.237,43.969 363.904,43.1356 366.5,42C 372.086,40.8202 377.253,41.6535 382,44.5C 382.333,44.1667 382.667,43.8333 383,43.5C 384.902,45.8841 386.069,48.5508 386.5,51.5 Z"/></g>
<g><path style="opacity:1" fill="#3fa7b4" d="M 264.5,95.5 C 264.5,97.1667 264.5,98.8333 264.5,100.5C 265.5,100.5 266.5,100.5 267.5,100.5C 276.099,97.821 283.599,95.821 290,94.5C 294.889,94.6107 299.556,95.6107 304,97.5C 304.561,96.9781 305.228,96.6448 306,96.5C 307.333,97.1667 308.667,97.8333 310,98.5C 312.939,97.9634 315.772,98.6301 318.5,100.5C 316.777,101.807 314.943,101.807 313,100.5C 312.544,101.744 313.044,102.577 314.5,103C 312.915,103.085 311.582,103.251 310.5,103.5C 310.709,104.086 311.043,104.586 311.5,105C 314.833,105.333 318.167,105.667 321.5,106C 321.537,107.949 321.037,109.782 320,111.5C 317.547,109.513 315.38,109.179 313.5,110.5C 314.325,111.386 315.325,111.719 316.5,111.5C 316.5,112.5 316.5,113.5 316.5,114.5C 314.94,114.519 313.44,114.852 312,115.5C 310.832,114.491 309.665,113.491 308.5,112.5C 307.914,112.709 307.414,113.043 307,113.5C 306.632,112.09 305.799,111.09 304.5,110.5C 302.807,112.027 300.973,113.36 299,114.5C 298.311,113.643 297.478,112.977 296.5,112.5C 293.897,113.562 291.23,113.728 288.5,113C 283.805,109.455 278.805,108.788 273.5,111C 277.88,113.042 282.047,113.542 286,112.5C 287.768,113.682 287.935,115.015 286.5,116.5C 284.847,116.66 283.514,117.326 282.5,118.5C 277.56,121.77 273.227,125.77 269.5,130.5C 268.531,129.691 267.698,128.691 267,127.5C 264.65,130.878 262.483,134.378 260.5,138C 263.194,145.621 262.861,153.121 259.5,160.5C 259.833,162.167 260.167,163.833 260.5,165.5C 262.283,163.977 262.949,161.977 262.5,159.5C 263.5,159.5 264.5,159.5 265.5,159.5C 265.691,166.714 268.691,172.547 274.5,177C 275.448,177.483 276.448,177.649 277.5,177.5C 279.167,178.167 280.833,178.833 282.5,179.5C 285.695,181.03 289.195,181.696 293,181.5C 295.69,181.497 298.19,181.164 300.5,180.5C 309.676,179.081 316.009,174.081 319.5,165.5C 320.6,163.723 321.434,161.723 322,159.5C 322.667,152.167 322.667,144.833 322,137.5C 321.392,135.934 320.558,134.6 319.5,133.5C 318.041,128.9 315.375,125.234 311.5,122.5C 313.679,122.84 315.512,123.84 317,125.5C 319.743,127.98 321.743,130.98 323,134.5C 324.592,140.886 325.758,147.386 326.5,154C 325.833,158 325.167,162 324.5,166C 325.849,166.772 326.682,167.939 327,169.5C 327.561,167.275 328.561,165.275 330,163.5C 329.856,157.903 330.189,152.236 331,146.5C 332.42,152.83 332.753,159.163 332,165.5C 332.29,167.044 332.956,168.377 334,169.5C 335.153,166.289 335.82,162.956 336,159.5C 337.764,162.557 338.598,165.89 338.5,169.5C 340.39,169.703 341.89,169.037 343,167.5C 343.399,167.728 343.565,168.062 343.5,168.5C 343.5,169.5 343.5,170.5 343.5,171.5C 341.717,177.062 338.884,182.062 335,186.5C 330.667,190.066 326.501,193.733 322.5,197.5C 320.033,197.755 318.033,198.755 316.5,200.5C 315.391,200.557 314.391,200.89 313.5,201.5C 302.987,204.559 292.32,205.226 281.5,203.5C 279.898,201.926 277.898,201.259 275.5,201.5C 273.847,201.34 272.514,200.674 271.5,199.5C 272.552,199.649 273.552,199.483 274.5,199C 270.921,197.661 267.421,196.161 264,194.5C 263.024,196.887 261.191,198.054 258.5,198C 256.781,201.7 254.114,202.866 250.5,201.5C 247.388,203.576 244.222,203.243 241,200.5C 240.333,149.5 240.333,98.5 241,47.5C 241.5,47 242,46.5 242.5,46C 250.331,44.3038 254.664,44.1371 255.5,45.5C 255.334,51.5092 255.501,57.5092 256,63.5C 256.333,58.5 256.667,53.5 257,48.5C 258.699,47.5939 260.533,47.2606 262.5,47.5C 261.849,63.8683 262.515,79.8683 264.5,95.5 Z"/></g>
<g><path style="opacity:1" fill="#40a7b5" d="M 382.5,47.5 C 384.194,48.5274 385.527,49.8608 386.5,51.5C 389.167,56.5 389.167,61.5 386.5,66.5C 383.464,67.362 381.131,69.1953 379.5,72C 378.552,72.4828 377.552,72.6495 376.5,72.5C 376.5,71.5 376.5,70.5 376.5,69.5C 373.5,69.5 370.5,69.5 367.5,69.5C 367.739,67.5328 367.406,65.6995 366.5,64C 367.973,63.2904 368.64,62.1238 368.5,60.5C 367.167,60.5 365.833,60.5 364.5,60.5C 364.33,61.8221 364.663,62.9887 365.5,64C 363.893,63.9813 362.226,63.8146 360.5,63.5C 360.128,60.9783 360.961,58.9783 363,57.5C 363.333,58.1667 363.667,58.8333 364,59.5C 364.273,57.8988 364.773,56.3988 365.5,55C 363.75,53.2458 363.083,51.0792 363.5,48.5C 367.952,44.8689 372.952,44.0356 378.5,46C 379.317,48.3725 380.65,48.8725 382.5,47.5 Z"/></g>
<g><path style="opacity:1" fill="#caf1f7" d="M 245.5,43.5 C 252.024,42.2676 258.691,42.2676 265.5,43.5C 264.846,62.5299 265.513,81.1966 267.5,99.5C 267.5,99.8333 267.5,100.167 267.5,100.5C 266.5,100.5 265.5,100.5 264.5,100.5C 264.5,98.8333 264.5,97.1667 264.5,95.5C 264.667,78.83 264.5,62.1633 264,45.5C 263.25,44.8742 262.416,44.3742 261.5,44C 256.177,43.5006 250.844,43.334 245.5,43.5 Z"/></g>
<g><path style="opacity:1" fill="#3fa3b8" d="M 363.5,48.5 C 363.083,51.0792 363.75,53.2458 365.5,55C 364.773,56.3988 364.273,57.8988 364,59.5C 363.667,58.8333 363.333,58.1667 363,57.5C 360.961,58.9783 360.128,60.9783 360.5,63.5C 362.226,63.8146 363.893,63.9813 365.5,64C 364.663,62.9887 364.33,61.8221 364.5,60.5C 365.833,60.5 367.167,60.5 368.5,60.5C 368.64,62.1238 367.973,63.2904 366.5,64C 367.406,65.6995 367.739,67.5328 367.5,69.5C 370.5,69.5 373.5,69.5 376.5,69.5C 376.5,70.5 376.5,71.5 376.5,72.5C 366.378,73.635 360.045,68.8017 357.5,58C 357.8,55.9757 358.633,55.4757 360,56.5C 360.333,54.5 360.667,52.5 361,50.5C 361.417,49.244 362.25,48.5774 363.5,48.5 Z"/></g>
<g><path style="opacity:1" fill="#50a7b0" d="M 382.5,47.5 C 380.65,48.8725 379.317,48.3725 378.5,46C 372.952,44.0356 367.952,44.8689 363.5,48.5C 362.25,48.5774 361.417,49.244 361,50.5C 360.667,52.5 360.333,54.5 360,56.5C 358.633,55.4757 357.8,55.9757 357.5,58C 360.045,68.8017 366.378,73.635 376.5,72.5C 377.552,72.6495 378.552,72.4828 379.5,72C 381.131,69.1953 383.464,67.362 386.5,66.5C 381.112,75.4499 373.445,77.9499 363.5,74C 354.172,66.8826 352.505,58.3826 358.5,48.5C 366.335,41.0125 374.335,40.6791 382.5,47.5 Z"/></g>
<g><path style="opacity:1" fill="#79bcc3" d="M 443.5,90.5 C 450.224,89.1961 456.891,89.5294 463.5,91.5C 456.841,91.0462 450.174,90.7129 443.5,90.5 Z"/></g>
<g><path style="opacity:1" fill="#41a7b4" d="M 124.5,95.5 C 124.08,99.0075 123.08,102.341 121.5,105.5C 120.833,106.833 120.167,108.167 119.5,109.5C 118.399,110.848 117.399,112.348 116.5,114C 111.833,114 107.167,114 102.5,114C 99.4006,114.387 96.734,115.554 94.5,117.5C 86.2164,124.058 81.5498,132.725 80.5,143.5C 79.6682,162.996 79.1682,182.662 79,202.5C 78.5831,203.756 77.7498,204.423 76.5,204.5C 70.4632,204.829 64.4632,204.496 58.5,203.5C 59.6685,201.783 61.3352,201.116 63.5,201.5C 63.719,200.325 63.3857,199.325 62.5,198.5C 58.2298,200.398 55.8965,199.065 55.5,194.5C 56.9684,191.056 57.6351,187.39 57.5,183.5C 56.8874,154.269 56.2207,125.103 55.5,96C 59.5833,94.2142 63.75,94.0475 68,95.5C 69.4595,95.1918 70.6261,94.5251 71.5,93.5C 73.5,93.5 75.5,93.5 77.5,93.5C 79.0696,95.8511 79.9029,98.5177 80,101.5C 92.9104,90.7572 107.41,87.9238 123.5,93C 124.252,93.6708 124.586,94.5041 124.5,95.5 Z"/></g>
<g><path style="opacity:1" fill="#54a6b2" d="M 325.5,103.5 C 322.794,103.312 320.461,102.312 318.5,100.5C 315.772,98.6301 312.939,97.9634 310,98.5C 308.667,97.8333 307.333,97.1667 306,96.5C 305.228,96.6448 304.561,96.9781 304,97.5C 299.556,95.6107 294.889,94.6107 290,94.5C 283.599,95.821 276.099,97.821 267.5,100.5C 267.5,100.167 267.5,99.8333 267.5,99.5C 282.74,92.4429 298.406,91.6096 314.5,97C 318.56,98.6891 322.227,100.856 325.5,103.5 Z"/></g>
<g><path style="opacity:1" fill="#41a7b4" d="M 360.5,93.5 C 367.508,93.3337 374.508,93.5004 381.5,94C 382.416,94.3742 383.25,94.8742 384,95.5C 384.5,130.832 384.667,166.165 384.5,201.5C 384.167,201.5 383.833,201.5 383.5,201.5C 382.895,199.974 381.729,198.974 380,198.5C 376.256,199.626 372.423,199.793 368.5,199C 367.531,197.242 366.364,196.742 365,197.5C 363.943,195.781 363.11,193.947 362.5,192C 363.832,159.736 363.832,127.569 362.5,95.5C 361.5,95.5 360.5,95.5 359.5,95.5C 359.833,94.8333 360.167,94.1667 360.5,93.5 Z"/></g>
<g><path style="opacity:1" fill="#40a7b4" d="M 443.5,90.5 C 450.174,90.7129 456.841,91.0462 463.5,91.5C 465.579,91.9707 467.579,92.6373 469.5,93.5C 469.694,95.9118 471.027,96.9118 473.5,96.5C 473.238,97.9778 473.571,99.3112 474.5,100.5C 478.869,102.452 481.869,105.285 483.5,109C 481.956,109.29 480.623,109.956 479.5,111C 480.549,111.492 481.549,111.326 482.5,110.5C 483.281,111.729 483.781,113.062 484,114.5C 484.317,112.699 484.984,112.366 486,113.5C 486.887,117.848 486.387,122.015 484.5,126C 485.127,128.135 485.627,130.302 486,132.5C 486.219,131.062 486.719,129.729 487.5,128.5C 487.833,131 488.167,133.5 488.5,136C 488.447,157.522 488.447,179.022 488.5,200.5C 485.734,202.129 482.734,202.795 479.5,202.5C 478.065,201.176 477.065,199.509 476.5,197.5C 477.32,195.889 478.654,195.222 480.5,195.5C 480.63,178.156 480.797,160.822 481,143.5C 480.333,144.833 479.667,144.833 479,143.5C 478.646,159.175 478.646,174.842 479,190.5C 477.644,191.38 476.144,191.714 474.5,191.5C 474.104,196.384 472.604,196.718 470,192.5C 468.097,194.441 467.264,196.774 467.5,199.5C 466.337,179.004 466.171,158.337 467,137.5C 467.763,140.063 468.263,140.063 468.5,137.5C 468.471,135.971 467.804,134.804 466.5,134C 466.957,133.586 467.291,133.086 467.5,132.5C 465.26,129.739 463.593,126.739 462.5,123.5C 461.067,121.481 459.733,119.314 458.5,117C 456.783,115.441 454.783,114.608 452.5,114.5C 452.389,113.883 452.056,113.383 451.5,113C 446.4,112.048 441.733,112.882 437.5,115.5C 432.916,117.082 429.583,120.082 427.5,124.5C 424.895,128.05 423.061,132.05 422,136.5C 421.5,157.831 421.333,179.164 421.5,200.5C 420.71,201.794 419.71,202.961 418.5,204C 411.842,204.5 405.175,204.666 398.5,204.5C 398.167,203.833 397.833,203.167 397.5,202.5C 403.15,201.922 408.817,201.255 414.5,200.5C 409.544,199.506 404.544,199.173 399.5,199.5C 400.127,188.871 399.96,178.205 399,167.5C 397.542,178.188 397.042,188.855 397.5,199.5C 396.502,165.337 396.168,131.004 396.5,96.5C 403.611,94.6564 410.945,93.9898 418.5,94.5C 419.989,96.1161 420.989,98.1161 421.5,100.5C 423.419,99.3875 425.086,98.0542 426.5,96.5C 432.014,94.0391 437.681,92.0391 443.5,90.5 Z"/></g>
<g><path style="opacity:1" fill="#e7f7f8" d="M 77.5,93.5 C 75.5,93.5 73.5,93.5 71.5,93.5C 66.1563,93.334 60.8229,93.5006 55.5,94C 55,94.5 54.5,95 54,95.5C 53.3333,130.833 53.3333,166.167 54,201.5C 54.5,203.333 55.6667,204.5 57.5,205C 63.8246,205.5 70.1579,205.666 76.5,205.5C 69.6791,206.655 62.6791,206.821 55.5,206C 53.1402,204.635 51.4735,202.635 50.5,200C 51,199.5 51.5,199 52,198.5C 52.3333,163.5 52.6667,128.5 53,93.5C 53.7504,92.8742 54.5838,92.3742 55.5,92C 62.5,91.3333 69.5,91.3333 76.5,92C 77.056,92.3826 77.3893,92.8826 77.5,93.5 Z"/></g>
<g><path style="opacity:1" fill="#eff9f9" d="M 385.5,95.5 C 386.664,130.998 386.831,166.664 386,202.5C 385.5,203.667 384.667,204.5 383.5,205C 375.507,205.5 367.507,205.666 359.5,205.5C 359.5,204.5 359.5,203.5 359.5,202.5C 360.289,202.783 360.956,203.283 361.5,204C 368.5,204.667 375.5,204.667 382.5,204C 383.252,203.329 383.586,202.496 383.5,201.5C 383.833,201.5 384.167,201.5 384.5,201.5C 385.498,166.337 385.832,131.004 385.5,95.5 Z"/></g>
<g><path style="opacity:1" fill="#5bacba" d="M 71.5,93.5 C 70.6261,94.5251 69.4595,95.1918 68,95.5C 63.75,94.0475 59.5833,94.2142 55.5,96C 56.2207,125.103 56.8874,154.269 57.5,183.5C 57.6351,187.39 56.9684,191.056 55.5,194.5C 55.8965,199.065 58.2298,200.398 62.5,198.5C 63.3857,199.325 63.719,200.325 63.5,201.5C 61.3352,201.116 59.6685,201.783 58.5,203.5C 64.4632,204.496 70.4632,204.829 76.5,204.5C 76.5,204.833 76.5,205.167 76.5,205.5C 70.1579,205.666 63.8246,205.5 57.5,205C 55.6667,204.5 54.5,203.333 54,201.5C 53.3333,166.167 53.3333,130.833 54,95.5C 54.5,95 55,94.5 55.5,94C 60.8229,93.5006 66.1563,93.334 71.5,93.5 Z"/></g>
<g><path style="opacity:1" fill="#5aaab4" d="M 359.5,95.5 C 360.5,95.5 361.5,95.5 362.5,95.5C 361.341,128.762 361.174,162.095 362,195.5C 362.376,198.01 363.21,200.343 364.5,202.5C 370.773,201.54 377.107,201.207 383.5,201.5C 383.586,202.496 383.252,203.329 382.5,204C 375.5,204.667 368.5,204.667 361.5,204C 360.956,203.283 360.289,202.783 359.5,202.5C 359.5,201.833 359.167,201.5 358.5,201.5C 358.168,165.996 358.502,130.663 359.5,95.5 Z"/></g>
<g><path style="opacity:1" fill="#3ea6ba" d="M 362.5,95.5 C 363.832,127.569 363.832,159.736 362.5,192C 363.11,193.947 363.943,195.781 365,197.5C 366.364,196.742 367.531,197.242 368.5,199C 372.423,199.793 376.256,199.626 380,198.5C 381.729,198.974 382.895,199.974 383.5,201.5C 377.107,201.207 370.773,201.54 364.5,202.5C 363.21,200.343 362.376,198.01 362,195.5C 361.174,162.095 361.341,128.762 362.5,95.5 Z"/></g>
<g><path style="opacity:1" fill="#d4f0f1" d="M 124.5,95.5 C 125.518,98.3768 125.351,101.377 124,104.5C 123.329,105.252 122.496,105.586 121.5,105.5C 123.08,102.341 124.08,99.0075 124.5,95.5 Z"/></g>
<g><path style="opacity:1" fill="#c7e7ef" d="M 426.5,96.5 C 425.086,98.0542 423.419,99.3875 421.5,100.5C 420.989,98.1161 419.989,96.1161 418.5,94.5C 411.679,93.3454 404.679,93.1787 397.5,94C 397,94.5 396.5,95 396,95.5C 395.333,130.833 395.333,166.167 396,201.5C 396.383,202.056 396.883,202.389 397.5,202.5C 397.833,203.167 398.167,203.833 398.5,204.5C 396.983,204.489 395.816,203.823 395,202.5C 394.333,166.5 394.333,130.5 395,94.5C 403.566,92.5464 412.399,91.8797 421.5,92.5C 421.5,93.8333 421.5,95.1667 421.5,96.5C 423.167,96.5 424.833,96.5 426.5,96.5 Z"/></g>
<g><path style="opacity:1" fill="#3fa6b5" d="M 318.5,100.5 C 320.461,102.312 322.794,103.312 325.5,103.5C 330.188,106.188 333.855,109.855 336.5,114.5C 335.427,115.251 335.26,116.251 336,117.5C 338.5,121.667 341,125.833 343.5,130C 341.777,133.612 342.61,136.445 346,138.5C 346.976,148.795 346.143,158.795 343.5,168.5C 343.565,168.062 343.399,167.728 343,167.5C 341.89,169.037 340.39,169.703 338.5,169.5C 338.598,165.89 337.764,162.557 336,159.5C 335.82,162.956 335.153,166.289 334,169.5C 332.956,168.377 332.29,167.044 332,165.5C 332.753,159.163 332.42,152.83 331,146.5C 330.189,152.236 329.856,157.903 330,163.5C 328.561,165.275 327.561,167.275 327,169.5C 326.682,167.939 325.849,166.772 324.5,166C 325.167,162 325.833,158 326.5,154C 325.758,147.386 324.592,140.886 323,134.5C 321.743,130.98 319.743,127.98 317,125.5C 315.512,123.84 313.679,122.84 311.5,122.5C 310.402,121.603 310.402,120.77 311.5,120C 310.5,119 309.5,118 308.5,117C 302.025,115.627 295.691,115.461 289.5,116.5C 288.5,116.5 287.5,116.5 286.5,116.5C 287.935,115.015 287.768,113.682 286,112.5C 282.047,113.542 277.88,113.042 273.5,111C 278.805,108.788 283.805,109.455 288.5,113C 291.23,113.728 293.897,113.562 296.5,112.5C 297.478,112.977 298.311,113.643 299,114.5C 300.973,113.36 302.807,112.027 304.5,110.5C 305.799,111.09 306.632,112.09 307,113.5C 307.414,113.043 307.914,112.709 308.5,112.5C 309.665,113.491 310.832,114.491 312,115.5C 313.44,114.852 314.94,114.519 316.5,114.5C 316.5,113.5 316.5,112.5 316.5,111.5C 315.325,111.719 314.325,111.386 313.5,110.5C 315.38,109.179 317.547,109.513 320,111.5C 321.037,109.782 321.537,107.949 321.5,106C 318.167,105.667 314.833,105.333 311.5,105C 311.043,104.586 310.709,104.086 310.5,103.5C 311.582,103.251 312.915,103.085 314.5,103C 313.044,102.577 312.544,101.744 313,100.5C 314.943,101.807 316.777,101.807 318.5,100.5 Z"/></g>
<g><path style="opacity:1" fill="#49a6b4" d="M 225.5,131.5 C 225.41,134.152 226.076,136.485 227.5,138.5C 228.194,143.805 228.528,149.138 228.5,154.5C 227.384,160.567 225.718,166.567 223.5,172.5C 217.525,184.475 208.525,193.475 196.5,199.5C 185.917,203.652 174.917,205.319 163.5,204.5C 161.698,203.542 159.698,202.875 157.5,202.5C 153.564,200.871 149.564,199.204 145.5,197.5C 138.699,198.874 132.366,201.208 126.5,204.5C 123.115,205.21 120.781,204.044 119.5,201C 122.451,194.434 125.118,187.767 127.5,181C 115.717,159.932 115.55,138.765 127,117.5C 149.588,90.4965 176.088,85.9965 206.5,104C 215.962,111.118 222.295,120.284 225.5,131.5 Z"/></g>
<g><path style="opacity:1" fill="#f6f9f9" d="M 139.5,189.5 C 138.167,189.5 136.833,189.5 135.5,189.5C 135.5,188.5 135.5,187.5 135.5,186.5C 137.097,183.681 137.597,180.681 137,177.5C 132.392,172.284 129.392,166.284 128,159.5C 127.333,152.167 127.333,144.833 128,137.5C 128.232,136.263 128.732,135.263 129.5,134.5C 130.458,134.047 131.292,133.381 132,132.5C 134.917,126.33 138.084,120.33 141.5,114.5C 153.542,103.069 167.875,99.2355 184.5,103C 206.724,109.881 218.391,124.881 219.5,148C 217.512,178.155 201.512,193.989 171.5,195.5C 163.181,195.67 155.514,193.503 148.5,189C 145.408,188.264 142.408,188.431 139.5,189.5 Z"/></g>
<g><path style="opacity:1" fill="#c9ebf0" d="M 452.5,114.5 C 447.463,114.413 442.463,114.746 437.5,115.5C 441.733,112.882 446.4,112.048 451.5,113C 452.056,113.383 452.389,113.883 452.5,114.5 Z"/></g>
<g><path style="opacity:1" fill="#d3edf0" d="M 119.5,109.5 C 119.739,111.467 119.406,113.301 118.5,115C 110.422,115.238 102.422,116.071 94.5,117.5C 96.734,115.554 99.4006,114.387 102.5,114C 107.167,114 111.833,114 116.5,114C 117.399,112.348 118.399,110.848 119.5,109.5 Z"/></g>
<g><path style="opacity:1" fill="#f8f9f9" d="M 282.5,118.5 C 288.509,118.334 294.509,118.501 300.5,119C 303.412,119.275 306.079,120.109 308.5,121.5C 309.391,122.11 310.391,122.443 311.5,122.5C 315.375,125.234 318.041,128.9 319.5,133.5C 322.132,144.162 322.132,154.829 319.5,165.5C 316.009,174.081 309.676,179.081 300.5,180.5C 294.464,180.64 288.464,180.307 282.5,179.5C 280.833,178.833 279.167,178.167 277.5,177.5C 267.068,167.492 263.234,155.159 266,140.5C 266.331,136.845 267.498,133.512 269.5,130.5C 273.227,125.77 277.56,121.77 282.5,118.5 Z"/></g>
<g><path style="opacity:1" fill="#e0f5f7" d="M 286.5,116.5 C 287.5,116.5 288.5,116.5 289.5,116.5C 294.566,116.34 299.566,116.84 304.5,118C 306.544,118.498 307.878,119.665 308.5,121.5C 306.079,120.109 303.412,119.275 300.5,119C 294.509,118.501 288.509,118.334 282.5,118.5C 283.514,117.326 284.847,116.66 286.5,116.5 Z"/></g>
<g><path style="opacity:1" fill="#6ab4bc" d="M 289.5,116.5 C 295.691,115.461 302.025,115.627 308.5,117C 309.5,118 310.5,119 311.5,120C 310.402,120.77 310.402,121.603 311.5,122.5C 310.391,122.443 309.391,122.11 308.5,121.5C 307.878,119.665 306.544,118.498 304.5,118C 299.566,116.84 294.566,116.34 289.5,116.5 Z"/></g>
<g><path style="opacity:1" fill="#5dacb3" d="M 336.5,114.5 C 346.212,126.662 350.045,140.662 348,156.5C 347.251,161.855 345.751,166.855 343.5,171.5C 343.5,170.5 343.5,169.5 343.5,168.5C 346.143,158.795 346.976,148.795 346,138.5C 342.61,136.445 341.777,133.612 343.5,130C 341,125.833 338.5,121.667 336,117.5C 335.26,116.251 335.427,115.251 336.5,114.5 Z"/></g>
<g><path style="opacity:1" fill="#3ea2b4" d="M 59.5,127.5 C 60.8312,135.305 61.4979,143.472 61.5,152C 61.4758,164.854 60.9758,177.687 60,190.5C 59.5,169.503 59.3334,148.503 59.5,127.5 Z"/></g>
<g><path style="opacity:1" fill="#4da0ac" d="M 418.5,94.5 C 410.945,93.9898 403.611,94.6564 396.5,96.5C 396.168,131.004 396.502,165.337 397.5,199.5C 397.5,200.5 397.5,201.5 397.5,202.5C 396.883,202.389 396.383,202.056 396,201.5C 395.333,166.167 395.333,130.833 396,95.5C 396.5,95 397,94.5 397.5,94C 404.679,93.1787 411.679,93.3454 418.5,94.5 Z"/></g>
<g><path style="opacity:1" fill="#dcf3f5" d="M 199.5,133.5 C 196.631,130.979 193.298,129.313 189.5,128.5C 186.433,128.728 184.1,130.061 182.5,132.5C 182.167,132.5 181.833,132.5 181.5,132.5C 182.537,128.494 185.203,126.828 189.5,127.5C 194.105,127.448 197.438,129.448 199.5,133.5 Z"/></g>
<g><path style="opacity:1" fill="#d7f2f4" d="M 141.5,114.5 C 138.084,120.33 134.917,126.33 132,132.5C 131.292,133.381 130.458,134.047 129.5,134.5C 131.715,129.068 134.215,123.735 137,118.5C 138.371,116.959 139.871,115.625 141.5,114.5 Z"/></g>
<g><path style="opacity:1" fill="#c8ecf2" d="M 360.5,93.5 C 367.982,92.508 375.648,92.1746 383.5,92.5C 384.401,93.2905 385.068,94.2905 385.5,95.5C 385.832,131.004 385.498,166.337 384.5,201.5C 384.667,166.165 384.5,130.832 384,95.5C 383.25,94.8742 382.416,94.3742 381.5,94C 374.508,93.5004 367.508,93.3337 360.5,93.5 Z"/></g>
<g><path style="opacity:1" fill="#4da5b5" d="M 269.5,130.5 C 267.498,133.512 266.331,136.845 266,140.5C 263.234,155.159 267.068,167.492 277.5,177.5C 276.448,177.649 275.448,177.483 274.5,177C 268.691,172.547 265.691,166.714 265.5,159.5C 264.5,159.5 263.5,159.5 262.5,159.5C 262.949,161.977 262.283,163.977 260.5,165.5C 260.167,163.833 259.833,162.167 259.5,160.5C 262.861,153.121 263.194,145.621 260.5,138C 262.483,134.378 264.65,130.878 267,127.5C 267.698,128.691 268.531,129.691 269.5,130.5 Z"/></g>
<g><path style="opacity:1" fill="#e4f5f7" d="M 161.5,148.5 C 163.168,146.66 164.668,144.66 166,142.5C 166.796,139.961 166.629,137.628 165.5,135.5C 162.841,130.333 158.508,128 152.5,128.5C 152.811,127.522 153.478,126.855 154.5,126.5C 158.258,127.364 161.925,128.53 165.5,130C 168.177,134.475 169.01,139.309 168,144.5C 165.931,146.085 163.764,147.419 161.5,148.5 Z"/></g>
<g><path style="opacity:1" fill="#43a7b2" d="M 195.5,133.5 C 191.269,133.024 186.936,133.357 182.5,134.5C 182.655,137.609 183.322,140.609 184.5,143.5C 185.474,141.257 185.808,138.924 185.5,136.5C 188.487,136.998 191.487,137.498 194.5,138C 195.711,138.893 195.711,139.726 194.5,140.5C 193.402,141.615 192.235,141.615 191,140.5C 187.854,142.38 187.854,144.046 191,145.5C 192.44,144.852 193.94,144.519 195.5,144.5C 193.621,148.009 190.621,149.342 186.5,148.5C 179.67,144.828 178.003,139.495 181.5,132.5C 181.833,132.5 182.167,132.5 182.5,132.5C 185.977,130.742 189.643,130.242 193.5,131C 194.381,131.708 195.047,132.542 195.5,133.5 Z"/></g>
<g><path style="opacity:1" fill="#40a3b7" d="M 195.5,133.5 C 196.216,136.283 196.883,139.116 197.5,142C 197.361,143.301 196.695,144.134 195.5,144.5C 193.94,144.519 192.44,144.852 191,145.5C 187.854,144.046 187.854,142.38 191,140.5C 192.235,141.615 193.402,141.615 194.5,140.5C 195.711,139.726 195.711,138.893 194.5,138C 191.487,137.498 188.487,136.998 185.5,136.5C 185.808,138.924 185.474,141.257 184.5,143.5C 183.322,140.609 182.655,137.609 182.5,134.5C 186.936,133.357 191.269,133.024 195.5,133.5 Z"/></g>
<g><path style="opacity:1" fill="#41a7b3" d="M 152.5,128.5 C 158.508,128 162.841,130.333 165.5,135.5C 165.984,138.798 164.984,141.464 162.5,143.5C 161.749,142.624 161.249,141.624 161,140.5C 160.626,141.416 160.126,142.25 159.5,143C 161.919,145.526 161.253,147.36 157.5,148.5C 147.248,145.079 145.248,139.079 151.5,130.5C 151.833,129.833 152.167,129.167 152.5,128.5 Z"/></g>
<g><path style="opacity:1" fill="#41a2ba" d="M 153.5,133.5 C 159.891,133.285 160.058,134.285 154,136.5C 153.506,138.134 153.34,139.801 153.5,141.5C 151.641,141.539 150.308,140.706 149.5,139C 150.665,137.008 151.998,135.175 153.5,133.5 Z"/></g>
<g><path style="opacity:1" fill="#8dc7cd" d="M 225.5,131.5 C 226.924,133.515 227.59,135.848 227.5,138.5C 226.076,136.485 225.41,134.152 225.5,131.5 Z"/></g>
<g><path style="opacity:1" fill="#dff9f9" d="M 463.5,130.5 C 464.332,153.996 464.832,177.663 465,201.5C 466.045,202.373 466.878,203.373 467.5,204.5C 466.417,204.461 465.417,204.127 464.5,203.5C 463.5,179.176 463.167,154.842 463.5,130.5 Z"/></g>
<g><path style="opacity:1" fill="#5facb3" d="M 199.5,133.5 C 201.016,140.205 199.016,145.371 193.5,149C 190.961,149.796 188.628,149.629 186.5,148.5C 190.621,149.342 193.621,148.009 195.5,144.5C 196.695,144.134 197.361,143.301 197.5,142C 196.883,139.116 196.216,136.283 195.5,133.5C 195.047,132.542 194.381,131.708 193.5,131C 189.643,130.242 185.977,130.742 182.5,132.5C 184.1,130.061 186.433,128.728 189.5,128.5C 193.298,129.313 196.631,130.979 199.5,133.5 Z"/></g>
<g><path style="opacity:1" fill="#5ba6b1" d="M 151.5,130.5 C 145.248,139.079 147.248,145.079 157.5,148.5C 161.253,147.36 161.919,145.526 159.5,143C 160.126,142.25 160.626,141.416 161,140.5C 161.249,141.624 161.749,142.624 162.5,143.5C 164.984,141.464 165.984,138.798 165.5,135.5C 166.629,137.628 166.796,139.961 166,142.5C 164.668,144.66 163.168,146.66 161.5,148.5C 158.555,149.468 155.555,149.634 152.5,149C 150.667,147.167 148.833,145.333 147,143.5C 146.333,140.5 146.333,137.5 147,134.5C 147.876,132.365 149.376,131.031 151.5,130.5 Z"/></g>
<g><path style="opacity:1" fill="#51a2af" d="M 245.5,43.5 C 250.844,43.334 256.177,43.5006 261.5,44C 262.416,44.3742 263.25,44.8742 264,45.5C 264.5,62.1633 264.667,78.83 264.5,95.5C 262.515,79.8683 261.849,63.8683 262.5,47.5C 260.533,47.2606 258.699,47.5939 257,48.5C 256.667,53.5 256.333,58.5 256,63.5C 255.501,57.5092 255.334,51.5092 255.5,45.5C 254.664,44.1371 250.331,44.3038 242.5,46C 242,46.5 241.5,47 241,47.5C 240.333,98.5 240.333,149.5 241,200.5C 244.222,203.243 247.388,203.576 250.5,201.5C 254.114,202.866 256.781,201.7 258.5,198C 261.191,198.054 263.024,196.887 264,194.5C 267.421,196.161 270.921,197.661 274.5,199C 273.552,199.483 272.552,199.649 271.5,199.5C 269.486,199.608 267.82,198.942 266.5,197.5C 266.44,196.957 266.107,196.624 265.5,196.5C 264.725,198.843 264.058,201.177 263.5,203.5C 256.216,204.597 248.882,204.763 241.5,204C 241,203.5 240.5,203 240,202.5C 239.333,149.833 239.333,97.1667 240,44.5C 241.699,43.5939 243.533,43.2606 245.5,43.5 Z"/></g>
<g><path style="opacity:1" fill="#5aa7b3" d="M 469.5,93.5 C 479.364,97.7034 485.698,105.037 488.5,115.5C 488.485,119.56 488.985,123.56 490,127.5C 490.5,152.164 490.667,176.831 490.5,201.5C 489.373,202.122 488.373,202.955 487.5,204C 480.842,204.5 474.175,204.666 467.5,204.5C 466.878,203.373 466.045,202.373 465,201.5C 464.832,177.663 464.332,153.996 463.5,130.5C 463.007,128.194 462.674,125.861 462.5,123.5C 463.593,126.739 465.26,129.739 467.5,132.5C 467.291,133.086 466.957,133.586 466.5,134C 467.804,134.804 468.471,135.971 468.5,137.5C 468.263,140.063 467.763,140.063 467,137.5C 466.171,158.337 466.337,179.004 467.5,199.5C 467.369,200.239 467.536,200.906 468,201.5C 469.333,200.833 470.667,200.167 472,199.5C 473.848,201.953 476.348,202.953 479.5,202.5C 482.734,202.795 485.734,202.129 488.5,200.5C 488.447,179.022 488.447,157.522 488.5,136C 488.167,133.5 487.833,131 487.5,128.5C 486.719,129.729 486.219,131.062 486,132.5C 485.627,130.302 485.127,128.135 484.5,126C 486.387,122.015 486.887,117.848 486,113.5C 484.984,112.366 484.317,112.699 484,114.5C 483.781,113.062 483.281,111.729 482.5,110.5C 481.549,111.326 480.549,111.492 479.5,111C 480.623,109.956 481.956,109.29 483.5,109C 481.869,105.285 478.869,102.452 474.5,100.5C 473.571,99.3112 473.238,97.9778 473.5,96.5C 471.027,96.9118 469.694,95.9118 469.5,93.5 Z"/></g>
<g><path style="opacity:1" fill="#dff5f7" d="M 319.5,133.5 C 320.558,134.6 321.392,135.934 322,137.5C 322.667,144.833 322.667,152.167 322,159.5C 321.434,161.723 320.6,163.723 319.5,165.5C 322.132,154.829 322.132,144.162 319.5,133.5 Z"/></g>
<g><path style="opacity:1" fill="#e6f6f7" d="M 427.5,124.5 C 426.55,127.068 426.55,129.568 427.5,132C 426.747,133.487 425.914,133.654 425,132.5C 424.297,135.713 424.464,138.879 425.5,142C 425.167,142.5 424.833,143 424.5,143.5C 423.719,142.271 423.219,140.938 423,139.5C 422.832,160.004 422.332,180.337 421.5,200.5C 421.333,179.164 421.5,157.831 422,136.5C 423.061,132.05 424.895,128.05 427.5,124.5 Z"/></g>
<g><path style="opacity:1" fill="#d9f2f8" d="M 80.5,143.5 C 80.5,164.167 80.5,184.833 80.5,205.5C 79.1667,205.5 77.8333,205.5 76.5,205.5C 76.5,205.167 76.5,204.833 76.5,204.5C 77.7498,204.423 78.5831,203.756 79,202.5C 79.1682,182.662 79.6682,162.996 80.5,143.5 Z"/></g>
<g><path style="opacity:1" fill="#e0f8f9" d="M 488.5,115.5 C 489.117,115.611 489.617,115.944 490,116.5C 490.333,119.833 490.667,123.167 491,126.5C 491.83,151.67 491.663,176.67 490.5,201.5C 490.667,176.831 490.5,152.164 490,127.5C 488.985,123.56 488.485,119.56 488.5,115.5 Z"/></g>
<g><path style="opacity:1" fill="#edfaf9" d="M 383.5,92.5 C 375.648,92.1746 367.982,92.508 360.5,93.5C 360.167,94.1667 359.833,94.8333 359.5,95.5C 358.502,130.663 358.168,165.996 358.5,201.5C 357.134,199.082 356.134,196.416 355.5,193.5C 356.319,160.856 356.819,128.19 357,95.5C 358.097,92.7352 360.097,91.0686 363,90.5C 366.781,91.7337 370.614,91.7337 374.5,90.5C 377.674,90.9908 380.674,91.6575 383.5,92.5 Z"/></g>
<g><path style="opacity:1" fill="#78b1bc" d="M 153.5,163.5 C 153.833,159.167 151.833,157.167 147.5,157.5C 149.669,154.932 152.002,154.932 154.5,157.5C 155.949,159.912 155.616,161.912 153.5,163.5 Z"/></g>
<g><path style="opacity:1" fill="#dbf3f4" d="M 228.5,154.5 C 228.833,161.013 228,167.346 226,173.5C 225.329,172.748 224.496,172.414 223.5,172.5C 225.718,166.567 227.384,160.567 228.5,154.5 Z"/></g>
<g><path style="opacity:1" fill="#3fa2b7" d="M 397.5,202.5 C 397.5,201.5 397.5,200.5 397.5,199.5C 397.042,188.855 397.542,178.188 399,167.5C 399.96,178.205 400.127,188.871 399.5,199.5C 404.544,199.173 409.544,199.506 414.5,200.5C 408.817,201.255 403.15,201.922 397.5,202.5 Z"/></g>
<g><path style="opacity:1" fill="#d1edf0" d="M 138.5,166.5 C 138.213,172.387 140.879,174.054 146.5,171.5C 147.522,171.855 148.189,172.522 148.5,173.5C 144.743,173.071 141.243,173.737 138,175.5C 137.195,172.304 137.362,169.304 138.5,166.5 Z"/></g>
<g><path style="opacity:1" fill="#47a5b3" d="M 147.5,157.5 C 151.833,157.167 153.833,159.167 153.5,163.5C 152.957,163.56 152.624,163.893 152.5,164.5C 155.155,167.825 158.488,170.159 162.5,171.5C 165.356,173.006 168.523,173.672 172,173.5C 174.361,173.496 176.527,173.163 178.5,172.5C 185.25,171.792 190.917,168.958 195.5,164C 200.498,162.67 202.664,164.504 202,169.5C 198.897,173.114 195.397,176.114 191.5,178.5C 186.953,180.01 182.287,181.01 177.5,181.5C 171.828,181.24 166.161,180.907 160.5,180.5C 156.172,178.671 152.172,176.338 148.5,173.5C 148.189,172.522 147.522,171.855 146.5,171.5C 140.879,174.054 138.213,172.387 138.5,166.5C 141.14,163.194 144.14,160.194 147.5,157.5 Z"/></g>
<g><path style="opacity:1" fill="#cbeff3" d="M 162.5,171.5 C 167.797,172.275 173.13,172.608 178.5,172.5C 176.527,173.163 174.361,173.496 172,173.5C 168.523,173.672 165.356,173.006 162.5,171.5 Z"/></g>
<g><path style="opacity:1" fill="#e2f5f7" d="M 148.5,173.5 C 152.172,176.338 156.172,178.671 160.5,180.5C 166.11,182.362 171.777,182.696 177.5,181.5C 182.287,181.01 186.953,180.01 191.5,178.5C 189.3,180.951 186.467,182.284 183,182.5C 174.171,183.603 165.504,183.603 157,182.5C 154.561,179.941 151.895,177.608 149,175.5C 148.536,174.906 148.369,174.239 148.5,173.5 Z"/></g>
<g><path style="opacity:1" fill="#d1f0f3" d="M 282.5,179.5 C 288.464,180.307 294.464,180.64 300.5,180.5C 298.19,181.164 295.69,181.497 293,181.5C 289.195,181.696 285.695,181.03 282.5,179.5 Z"/></g>
<g><path style="opacity:1" fill="#81bcc2" d="M 160.5,180.5 C 166.161,180.907 171.828,181.24 177.5,181.5C 171.777,182.696 166.11,182.362 160.5,180.5 Z"/></g>
<g><path style="opacity:1" fill="#c6eaee" d="M 135.5,186.5 C 135.5,187.5 135.5,188.5 135.5,189.5C 136.833,189.5 138.167,189.5 139.5,189.5C 137.604,190.481 135.604,191.481 133.5,192.5C 132.935,190.253 133.601,188.253 135.5,186.5 Z"/></g>
<g><path style="opacity:1" fill="#3fa3b6" d="M 479.5,202.5 C 476.348,202.953 473.848,201.953 472,199.5C 470.667,200.167 469.333,200.833 468,201.5C 467.536,200.906 467.369,200.239 467.5,199.5C 467.264,196.774 468.097,194.441 470,192.5C 472.604,196.718 474.104,196.384 474.5,191.5C 476.144,191.714 477.644,191.38 479,190.5C 478.646,174.842 478.646,159.175 479,143.5C 479.667,144.833 480.333,144.833 481,143.5C 480.797,160.822 480.63,178.156 480.5,195.5C 478.654,195.222 477.32,195.889 476.5,197.5C 477.065,199.509 478.065,201.176 479.5,202.5 Z"/></g>
<g><path style="opacity:1" fill="#3ea2b6" d="M 277.5,189.5 C 279.533,189.949 281.2,190.949 282.5,192.5C 281.675,193.386 280.675,193.719 279.5,193.5C 279.351,194.552 279.517,195.552 280,196.5C 281.84,196.488 283.673,195.654 285.5,194C 292.081,193.813 298.581,193.313 305,192.5C 307.919,193.187 310.752,194.187 313.5,195.5C 315.529,194.371 315.863,194.871 314.5,197C 312.305,198.373 309.971,198.706 307.5,198C 309.301,197.683 309.634,197.016 308.5,196C 306.899,195.727 305.399,195.227 304,194.5C 295.752,195.136 287.586,196.47 279.5,198.5C 277.075,197.692 274.742,196.692 272.5,195.5C 274.117,195.331 275.784,194.997 277.5,194.5C 276.833,193.5 276.167,192.5 275.5,191.5C 276.243,190.818 276.909,190.151 277.5,189.5 Z"/></g>
<g><path style="opacity:1" fill="#dcf3f5" d="M 157.5,202.5 C 152.825,202.211 148.325,201.211 144,199.5C 138.182,201.273 132.348,202.94 126.5,204.5C 132.366,201.208 138.699,198.874 145.5,197.5C 149.564,199.204 153.564,200.871 157.5,202.5 Z"/></g>
<g><path style="opacity:1" fill="#c8eeef" d="M 322.5,197.5 C 320.967,199.245 318.967,200.245 316.5,200.5C 318.033,198.755 320.033,197.755 322.5,197.5 Z"/></g>
<g><path style="opacity:1" fill="#bde8eb" d="M 266.5,197.5 C 266.06,199.844 265.06,201.844 263.5,203.5C 264.058,201.177 264.725,198.843 265.5,196.5C 266.107,196.624 266.44,196.957 266.5,197.5 Z"/></g>
<g><path style="opacity:1" fill="#8dc4cc" d="M 275.5,201.5 C 277.898,201.259 279.898,201.926 281.5,203.5C 280.167,203.5 278.833,203.5 277.5,203.5C 276.833,202.833 276.167,202.167 275.5,201.5 Z"/></g>
<g><path style="opacity:1" fill="#e8f7f8" d="M 196.5,199.5 C 195.434,201.606 193.767,203.106 191.5,204C 186.895,204.304 182.395,205.138 178,206.5C 175.022,205.375 172.022,205.375 169,206.5C 166.779,206.607 164.946,205.94 163.5,204.5C 174.917,205.319 185.917,203.652 196.5,199.5 Z"/></g>
<g><path style="opacity:1" fill="#e9f8f9" d="M 313.5,201.5 C 312.047,202.825 312.381,203.658 314.5,204C 312.578,205.233 310.411,205.4 308,204.5C 306.833,204.667 305.667,204.833 304.5,205C 305.696,205.654 305.696,206.154 304.5,206.5C 298.28,206.524 291.947,206.357 285.5,206C 282.543,205.721 279.877,204.887 277.5,203.5C 278.833,203.5 280.167,203.5 281.5,203.5C 292.32,205.226 302.987,204.559 313.5,201.5 Z"/></g>
</svg>
